<?xml version="1.0" encoding="UTF-8" standalone="no"?>
<!DOCTYPE svg  PUBLIC '-//W3C//DTD SVG 1.1//EN'  'http://www.w3.org/Graphics/SVG/1.1/DTD/svg11.dtd'>
<svg id="Capa_1" style="enable-background:new 0 0 49.652 49.652" xmlns="http://www.w3.org/2000/svg" xml:space="preserve" height="49.652px" viewBox="0 0 49.652 49.652" width="49.652px" version="1.1" y="0px" x="0px" xmlns:xlink="http://www.w3.org/1999/xlink"><path d="m24.826 0c-13.689 0-24.826 11.137-24.826 24.826 0 13.688 11.137 24.826 24.826 24.826 13.688 0 24.826-11.138 24.826-24.826 0-13.689-11.136-24.826-24.826-24.826zm6.174 25.7h-4.039v14.396h-5.985v-14.396h-2.845v-5.088h2.845v-3.291c0-2.357 1.12-6.04 6.04-6.04l4.435 0.017v4.939h-3.219c-0.524 0-1.269 0.262-1.269 1.386v2.99h4.56l-0.523 5.087z" fill="#00aeef"/></svg>
