<?xml version="1.0" encoding="iso-8859-1"?><svg version="1.1" id="Capa_1" xmlns="http://www.w3.org/2000/svg" xmlns:xlink="http://www.w3.org/1999/xlink" x="0px" y="0px" viewBox="0 0 578.952 578.952" style="enable-background:new 0 0 578.952 578.952;" xml:space="preserve"><g><g><path style="fill:#9ccc65;" d="M576.505,14.076v550.801c0,4.08-1.432,7.443-4.285,10.098c-2.855,2.652-6.324,3.977-10.404,3.977 H17.136c-4.08,0-7.548-1.322-10.404-3.977s-4.284-6.018-4.284-10.098V14.076c0-4.08,1.428-7.446,4.284-10.098S13.056,0,17.136,0 h544.679c4.08,0,7.549,1.326,10.404,3.978S576.505,9.996,576.505,14.076z M401.471,511.633V307.225h74.664l3.061-73.44h-77.725 v-53.856c0-10.2,1.734-18.258,5.203-24.174c3.467-5.916,11.729-8.67,24.785-8.262h45.898l1.836-68.544 c-5.713-0.816-11.523-1.326-17.439-1.53s-11.322-0.51-16.221-0.918c-5.713-0.408-11.424-0.612-17.137-0.612 c-17.951-1.224-33.354,0.714-46.205,5.814s-23.461,12.24-31.824,21.42c-8.361,9.18-14.586,19.686-18.666,31.518 c-4.078,11.832-6.117,23.868-6.117,36.108v63.036h-52.633v73.44h52.633v204.408L401.471,511.633L401.471,511.633z"/></g></g><g></g><g></g><g></g><g></g><g></g><g></g><g></g><g></g><g></g><g></g><g></g><g></g><g></g><g></g><g></g></svg>