<?xml version="1.0" encoding="UTF-8" standalone="no"?>
<svg id="Capa_1" style="enable-background:new 0 0 96 96" xmlns="http://www.w3.org/2000/svg" xml:space="preserve" viewBox="0 0 96 96" version="1.1" y="0px" x="0px" xmlns:xlink="http://www.w3.org/1999/xlink"><path d="m48.07 47.746c-0.022 0-0.047-0.001-0.07-0.002-0.024 0.001-0.049 0.002-0.071 0.002-5.957 0-11.206-1.508-14.308 1.34-1.859 1.709-2.642 3.768-2.642 5.985 0 9.261 7.42 10.398 16.949 10.398h0.142c9.529 0 16.949-1.138 16.949-10.398 0-2.218-0.783-4.276-2.642-5.985-3.102-2.848-8.35-1.34-14.307-1.34zm-8.102 12.655c-1.813 0-3.283-2.036-3.283-4.547s1.47-4.546 3.283-4.546 3.285 2.035 3.285 4.546-1.472 4.547-3.285 4.547zm16.063 0c-1.814 0-3.285-2.036-3.285-4.547s1.471-4.546 3.285-4.546c1.812 0 3.283 2.035 3.283 4.546s-1.47 4.547-3.283 4.547zm-8.031-60.401c-26.511 0-48 21.49-48 48s21.489 48 48 48c26.509 0 48-21.49 48-48s-21.491-48-48-48zm4.378 67.701c-0.86 0-2.57 0.002-4.378 0.004-1.809-0.002-3.52-0.004-4.379-0.004-3.803 0-18.863-0.291-18.863-18.445 0-4.177 1.432-7.233 3.775-9.778-0.374-0.923-0.393-6.165 1.602-11.183 0 0 4.576 0.502 11.5 5.253 1.451-0.401 3.908-0.601 6.365-0.601 2.455 0 4.912 0.199 6.365 0.601 6.923-4.751 11.498-5.253 11.498-5.253 1.995 5.018 1.977 10.26 1.603 11.183 2.344 2.545 3.776 5.602 3.776 9.778 0 18.154-15.061 18.445-18.864 18.445z" fill="#00aeef"/></svg>
