<svg xmlns="http://www.w3.org/2000/svg" viewBox="0 0 412.11 58.54"><defs><style>.cls-1{fill:black}</style></defs><title>logo-assertiva</title><g id="Layer_2" data-name="Layer 2"><g id="Layer_1-2" data-name="Layer 1"><path class="cls-1" d="M263.66 39.11h-4.33V8.51h4.33zM40.71 39.11h-5L20.36 14 5 39.11H0l18.68-30.6H22zM65.12 39.11a33.67 33.67 0 0 1-11.29-1.6c-3.1-1.11-5.21-2.83-6.26-5.09l-.63-1.33h4.73l.28.41c1.72 2.5 6.18 3.78 13.25 3.78a29.28 29.28 0 0 0 7.8-.92c4.35-1.26 4.35-3.13 4.35-3.74A2.81 2.81 0 0 0 76 28.05a13.11 13.11 0 0 0-4.09-1.33c-1.1-.24-3.82-.7-8.09-1.36a60.25 60.25 0 0 1-10-2.08C50 21.87 48 19.64 48 16.67c0-5.41 5.41-8.16 16.06-8.16 9 0 14.53 2.27 16.29 6.74l.5 1.28h-4.64l-.27-.5a5.85 5.85 0 0 0-3.5-2.74 28 28 0 0 0-8.38-.95c-5.33 0-11.68.76-11.68 4.33 0 .47 0 1.88 2.82 2.94a36.84 36.84 0 0 0 7.8 1.61c7 .91 11.63 1.85 14 2.89 3.15 1.38 4.75 3.61 4.75 6.63 0 3.24-2.27 5.6-6.75 7a33.4 33.4 0 0 1-9.88 1.37zM108.28 39.11A33.67 33.67 0 0 1 97 37.51c-3.1-1.11-5.21-2.83-6.26-5.09l-.63-1.33h4.73l.28.4c1.72 2.51 6.18 3.79 13.25 3.79a29.28 29.28 0 0 0 7.84-.92c4.35-1.26 4.35-3.13 4.35-3.74a2.81 2.81 0 0 0-1.38-2.57 12.61 12.61 0 0 0-4.09-1.33c-1.1-.24-3.82-.7-8.09-1.36a60.68 60.68 0 0 1-10-2.08c-3.83-1.41-5.78-3.64-5.78-6.61 0-5.41 5.41-8.16 16.06-8.16 9 0 14.53 2.27 16.28 6.74l.51 1.28h-4.64l-.33-.53a5.82 5.82 0 0 0-3.5-2.75 28 28 0 0 0-8.38-.95c-5.33 0-11.68.76-11.68 4.33 0 .47 0 1.89 2.82 2.94a36.84 36.84 0 0 0 7.8 1.61c7 .91 11.63 1.85 14 2.89 3.16 1.38 4.76 3.61 4.76 6.63 0 3.24-2.27 5.6-6.75 7a33.4 33.4 0 0 1-9.89 1.41zM165 39.11h-31.2V8.51H165v3.87h-26.91v22.86H165zm-3.34-13h-19.17V22.2h19.19zM235.64 39.11h-4.34V16.43h4.34zm14.82-26.73h-34V8.51h34zM207.06 39.11h-4.37V31c0-3.2-3.34-4.82-9.91-4.82h-10.27V22.2h10a20.87 20.87 0 0 0 7.17-1c2.43-.91 3.62-2.25 3.62-4.12 0-3.19-3.23-4.74-9.86-4.74h-15.2v26.77h-4.33V8.51h19.4c9.51 0 14.32 2.86 14.32 8.48 0 3.24-1.59 5.64-4.75 7.17a7.12 7.12 0 0 1 4.2 6.72zM298.69 39.11h-3.34l-18.68-30.6h5L297 33.58l15.38-25.07h5z"/><path class="cls-1" d="M28.1 35.09H12.61l2.36-3.83h10.8l2.33 3.83zM354.85 39.11h-5L334.49 14l-15.36 25.11h-5l18.68-30.6h3.35z"/><path class="cls-1" d="M342.24 35.09h-15.49l2.36-3.83h10.8l2.33 3.83zM388.54 16.12a7.68 7.68 0 1 0 7.67 7.67 7.67 7.67 0 0 0-7.67-7.67z"/><path class="cls-1" d="M386.81.05a23.79 23.79 0 0 0 1.51 47.53h1.87c.42 0 .84-.07 1.26-.13h.21a25.54 25.54 0 0 0 3.06-.64v11.73S404.61 43 408.22 37c.6-1 1-1.85 1.48-2.76a25.34 25.34 0 0 0 1-2.4v-.15c.12-.34.24-.69.34-1.05l.09-.32q.14-.45.24-.9l.09-.4c.07-.28.13-.57.18-.85s.05-.3.08-.44l.12-.85.06-.45c0-.3 0-.6.08-.9v-.41-1.32A23.79 23.79 0 0 0 386.81.05zm1.73 39.09a15.35 15.35 0 1 1 15.35-15.35 15.35 15.35 0 0 1-15.35 15.35z"/><path class="cls-1" d="M394.67 30.55l1.27-.23-6.67-6.77-.74 1.08.77 8.76.96-.8-.03-.45 1.17-1.26 1.74 4.07 1.51-.69-1.97-3.95 1.67-.07.32.31z"/></g></g></svg>
