<svg width="134" height="26" viewBox="0 0 134 26" xmlns="http://www.w3.org/2000/svg"><title>bugcrowd logo@3x</title><path d="M32.194 16.566c-.106-.105-.161-.254-.161-.444V5.781h-3.516v6.351c0 .624-.088 1.213-.258 1.774a4.725 4.725 0 0 1-.767 1.488 3.707 3.707 0 0 1-1.24 1.027c-.49.249-1.058.376-1.694.38-.577-.004-1.025-.123-1.343-.358-.319-.235-.54-.565-.664-.986-.125-.42-.185-.914-.18-1.48V7.6c.004-.625-.144-1.082-.439-1.38-.3-.295-.77-.444-1.417-.44h-3.35v2.932h1.108c.194 0 .346.045.452.145.102.1.157.25.157.452v5.375c.005 1.253.203 2.266.596 3.04.387.778.945 1.343 1.675 1.701.724.353 1.592.529 2.601.524a5.803 5.803 0 0 0 1.698-.248 5.344 5.344 0 0 0 1.403-.652 5.27 5.27 0 0 0 1.076-.918c.295-.344.53-.697.697-1.06h.055l-.014.191a5.991 5.991 0 0 0-.014.435v.38c0 .493.157.872.47 1.14.315.266.776.402 1.385.407h3.24V16.72h-1.108c-.194 0-.346-.055-.448-.154m-20.298-1.982c-.185.53-.443.977-.77 1.343A3.312 3.312 0 0 1 10 16.76a3.31 3.31 0 0 1-1.362.285c-.586-.004-1.102-.126-1.54-.361a3.241 3.241 0 0 1-1.099-.965 4.375 4.375 0 0 1-.66-1.366 5.75 5.75 0 0 1-.217-1.57c.005-.764.102-1.424.295-1.976.194-.552.457-1.004.79-1.358a3.24 3.24 0 0 1 1.135-.787c.42-.167.862-.249 1.324-.249.697.005 1.31.186 1.836.54.526.356.937.858 1.232 1.505.295.651.444 1.417.448 2.298-.004.688-.097 1.294-.286 1.828m2.136-7.116a5.595 5.595 0 0 0-1.975-1.484c-.765-.349-1.629-.525-2.588-.529a6.18 6.18 0 0 0-1.588.199c-.461.131-.862.29-1.195.48-.337.19-.608.379-.821.57a4.08 4.08 0 0 0-.48.479 2.62 2.62 0 0 0-.153.199h-.055l.028-.33c.014-.213.023-.493.027-.837V2.197c.005-.633-.147-1.104-.451-1.402C4.476.496 3.996.347 3.35.351H0v2.932h1.107c.193 0 .346.046.452.145.101.1.156.249.156.452v15.744H5.04v-.706a10.774 10.774 0 0 0-.028-.665l-.028-.258h.056a4.083 4.083 0 0 0 .636.688c.218.195.49.384.822.58a5.17 5.17 0 0 0 1.186.483 5.83 5.83 0 0 0 1.564.203c.942-.004 1.804-.176 2.589-.515a5.896 5.896 0 0 0 2.054-1.462c.58-.632 1.028-1.393 1.352-2.285.318-.886.48-1.88.484-2.985-.005-1.077-.148-2.059-.439-2.94-.29-.887-.71-1.652-1.255-2.294m31.261 6.862c-.18.526-.423.942-.737 1.254-.31.307-.66.534-1.052.665a3.623 3.623 0 0 1-1.228.199c-.757-.009-1.398-.19-1.92-.552-.52-.362-.918-.86-1.19-1.493-.267-.628-.406-1.348-.406-2.162 0-.783.129-1.461.379-2.036a2.965 2.965 0 0 1 1.116-1.34c.489-.316 1.089-.474 1.8-.479.479-.005.932.055 1.356.181.42.122.794.336 1.117.634.323.298.576.705.761 1.22.184.521.277 1.173.281 1.955-.004.778-.097 1.43-.277 1.954m1.21-8.36a1.237 1.237 0 0 0-.5.48c-.105.19-.155.394-.155.606v.353h-.056c0-.004-.046-.072-.138-.203a3.283 3.283 0 0 0-.452-.484 4.247 4.247 0 0 0-.813-.58 5.296 5.296 0 0 0-1.236-.484c-.485-.13-1.057-.199-1.708-.203-1.02.004-1.915.186-2.694.542a5.56 5.56 0 0 0-1.961 1.48 6.486 6.486 0 0 0-1.195 2.19 8.707 8.707 0 0 0-.407 2.682c0 .955.143 1.855.425 2.696a6.659 6.659 0 0 0 1.231 2.23 5.732 5.732 0 0 0 1.99 1.516c.784.367 1.684.552 2.695.561.936 0 1.72-.153 2.362-.457a3.989 3.989 0 0 0 1.569-1.334h.055c0 .004 0 .04-.005.117-.004.077-.009.168-.013.28-.004.114-.01.224-.01.336v1.26c0 .625-.11 1.15-.323 1.584a2.772 2.772 0 0 1-.871 1.05 3.64 3.64 0 0 1-1.27.583 6.21 6.21 0 0 1-1.457.176v2.986a10.49 10.49 0 0 0 2.15-.226 8.054 8.054 0 0 0 2.025-.71 6.097 6.097 0 0 0 1.675-1.248 5.547 5.547 0 0 0 1.14-1.85c.277-.724.42-1.557.42-2.507V9.255a.5.5 0 0 1 .17-.403.655.655 0 0 1 .439-.14h1.08V5.78H47.4c-.37.004-.665.067-.895.19m29.799-.38a4.312 4.312 0 0 0-1.98.48c-.6.317-1.112.737-1.542 1.271a5.715 5.715 0 0 0-.964 1.806h-.056l.029-.24c.012-.159.023-.367.027-.63v-.813c0-.58-.156-1.01-.475-1.28-.314-.272-.785-.408-1.408-.403h-3.211v2.93h1.107c.194 0 .346.047.452.146.102.1.157.25.157.452v10.314h3.489v-5.482c0-.408.027-.8.078-1.177a8.24 8.24 0 0 1 .227-1.076 4.38 4.38 0 0 1 .66-1.326 3.875 3.875 0 0 1 2.045-1.415 4.206 4.206 0 0 1 1.143-.164c.254 0 .456.01.613.027.157.014.24.024.245.028V5.645a1.618 1.618 0 0 0-.204-.027 3.033 3.033 0 0 0-.432-.028m36.794.498c-.309.213-.53.584-.665 1.104l-2.048 7.682a10.39 10.39 0 0 0-.157.706 9.989 9.989 0 0 0-.12.759h-.055a8.31 8.31 0 0 0-.028-.217c-.023-.14-.055-.32-.097-.542a8.989 8.989 0 0 0-.18-.706l-2.63-9.04h-3.101l-2.603 9.04c-.074.248-.133.484-.184.706a8.906 8.906 0 0 0-.111.542l-.037.217h-.055l-.028-.217c-.019-.14-.05-.32-.092-.542a10.2 10.2 0 0 0-.157-.706l-2.076-7.682c-.13-.52-.352-.891-.665-1.104-.309-.213-.752-.316-1.329-.307h-2.408v2.93h.387c.208-.003.37.023.494.092.12.067.216.199.282.398l3.377 10.422h3.987l2.38-7.898c.074-.249.139-.489.194-.715l.126-.556.04-.222h.056c0 .004.014.077.037.222.023.145.06.33.111.556.05.226.11.466.184.715l2.41 7.898h3.959l3.376-10.422c.079-.2.176-.33.297-.398.114-.069.277-.095.479-.091h.388V5.78h-2.41c-.571-.01-1.013.094-1.328.307m14.932 8.565c-.194.552-.457 1.004-.789 1.357a3.174 3.174 0 0 1-1.135.783 3.46 3.46 0 0 1-1.324.254c-.697-.005-1.307-.187-1.828-.544-.521-.352-.927-.855-1.218-1.502-.291-.651-.438-1.416-.443-2.298.005-.687.097-1.293.28-1.828.186-.529.44-.981.763-1.343a3.282 3.282 0 0 1 2.501-1.118c.59.005 1.102.127 1.537.362.438.24.803.561 1.088.964.291.403.508.86.651 1.366.143.507.212 1.027.212 1.57-.004.765-.101 1.425-.295 1.977zm4.338 2.068c-.194 0-.347-.055-.448-.154-.107-.105-.162-.254-.162-.444V2.198c.005-.634-.147-1.104-.451-1.403-.305-.298-.785-.448-1.432-.444h-3.35v2.933h1.109c.193 0 .345.044.45.144.103.1.159.249.159.452v2.443c0 .236.003.43.013.579.01.154.013.23.013.235h-.054c0-.004-.042-.062-.13-.176a3.147 3.147 0 0 0-.42-.416 3.882 3.882 0 0 0-.76-.497 4.883 4.883 0 0 0-1.154-.417 6.922 6.922 0 0 0-1.607-.176c-.936.004-1.799.176-2.578.516a5.866 5.866 0 0 0-2.036 1.456 6.711 6.711 0 0 0-1.328 2.29c-.314.886-.476 1.882-.48 2.985.004 1.077.152 2.059.443 2.94.295.888.715 1.652 1.269 2.29a5.624 5.624 0 0 0 1.979 1.488c.77.349 1.634.525 2.594.529a5.977 5.977 0 0 0 1.702-.235c.49-.149.905-.335 1.246-.556.346-.222.623-.448.835-.67a3.838 3.838 0 0 0 .619-.791h.055v.515c0 .272.055.516.17.728.116.213.3.376.554.498.258.122.6.182 1.02.185h3.239V16.72h-1.08zm-68.311-1.462c-.135.127-.328.28-.577.466a7.103 7.103 0 0 1-.886.552 6.26 6.26 0 0 1-1.154.466c-.424.126-.877.19-1.361.195a5.13 5.13 0 0 1-1.647-.267 4.247 4.247 0 0 1-1.403-.805 3.779 3.779 0 0 1-.983-1.335c-.24-.53-.364-1.15-.369-1.855.005-.841.189-1.584.544-2.23a3.916 3.916 0 0 1 1.467-1.52c.628-.371 1.353-.561 2.17-.566.217 0 .442.018.678.064.235.04.452.104.656.195.201.085.363.198.493.338a.73.73 0 0 1 .194.489v.76h3.1V8.576a2.269 2.269 0 0 0-.354-1.244 3.054 3.054 0 0 0-.924-.886 5.392 5.392 0 0 0-1.25-.58 8.29 8.29 0 0 0-1.357-.316 8.91 8.91 0 0 0-1.237-.095c-1.213.009-2.297.199-3.248.584-.955.38-1.767.904-2.432 1.573A6.853 6.853 0 0 0 52.66 9.92a7.536 7.536 0 0 0-.526 2.782 7.54 7.54 0 0 0 .54 2.827 6.814 6.814 0 0 0 1.537 2.303c.668.66 1.472 1.176 2.408 1.552.937.371 1.99.56 3.157.565a8.727 8.727 0 0 0 2.095-.257 8.268 8.268 0 0 0 1.66-.62c.48-.25.886-.494 1.21-.742a6.737 6.737 0 0 0 .987-.878l-1.468-2.389c0 .005-.069.069-.202.195m25.452-.792a4.133 4.133 0 0 1-.91 1.362 4.1 4.1 0 0 1-1.338.878 4.255 4.255 0 0 1-1.629.312 4.16 4.16 0 0 1-1.61-.312 4.072 4.072 0 0 1-1.334-.878 4.184 4.184 0 0 1-.904-1.362 4.688 4.688 0 0 1-.332-1.764 4.618 4.618 0 0 1 .332-1.75c.22-.53.521-.982.904-1.367a4.14 4.14 0 0 1 1.334-.882 4.163 4.163 0 0 1 1.61-.317 4.187 4.187 0 0 1 2.968 1.199c.387.385.687.837.908 1.366.217.525.328 1.108.333 1.751a4.695 4.695 0 0 1-.333 1.764m1.62-6.976a7.561 7.561 0 0 0-2.464-1.497 8.576 8.576 0 0 0-3.032-.538 8.545 8.545 0 0 0-3.018.538 7.566 7.566 0 0 0-2.454 1.497 7.002 7.002 0 0 0-1.648 2.294c-.397.883-.595 1.855-.604 2.918.009 1.069.207 2.045.604 2.932a6.932 6.932 0 0 0 1.648 2.289 7.459 7.459 0 0 0 2.454 1.493 8.571 8.571 0 0 0 3.018.533c1.09-.004 2.1-.18 3.032-.533a7.455 7.455 0 0 0 2.464-1.493 6.88 6.88 0 0 0 1.652-2.29c.397-.886.6-1.862.604-2.93-.004-1.064-.207-2.036-.604-2.919A6.95 6.95 0 0 0 91.13 7.49" fill="#000000" fill-rule="evenodd"/></svg>
