<svg xmlns="http://www.w3.org/2000/svg" viewBox="0 0 331.38 30"><defs><style>.cls-1{fill:#000}.cls-2{fill:#000}</style></defs><title>logo</title><g id="Layer_2" data-name="Layer 2"><g id="elementos"><path class="cls-1" d="M299.27 1.56h-4.03v16.18h13.03v-4.03h-9V1.56zM331.38 13.71h-15.05V1.56h-4.03V29.9h4.03V17.74h15.05v-4.03z"/><path class="cls-2" d="M187.81 29.9H166.8l14.79-24.13H168.1V1.56h21.01l-14.8 24.13h13.5v4.21zM220.52 5.49a10.24 10.24 0 1 1-10.24 10.24 10.25 10.25 0 0 1 10.24-10.24m0-4a14.27 14.27 0 1 0 14.27 14.27 14.27 14.27 0 0 0-14.27-14.3zM68.75 5.49a10.24 10.24 0 1 1-10.24 10.24A10.25 10.25 0 0 1 68.75 5.49m0-4A14.27 14.27 0 1 0 83 15.73 14.27 14.27 0 0 0 68.75 1.46zM253.93 29.3h-4.03V0l21.15 20.16V.27h4.03v29.3L253.93 9.41V29.3zM142.61 1.56h4.03V29.9h-4.03zM19.07 1.56h-4.03v12.15H0v4.03h15.04V29.9h4.03V17.74h9v-4.03h-9V1.56zM32.1 1.56h4.03V29.9H32.1zM122.45 29.9h-4.85l-10.52-15.79h7a4.26 4.26 0 1 0 0-8.52h-8.66V29.9h-4V1.56h12.69a8.29 8.29 0 0 1 .55 16.56z"/></g></g></svg>